G04 #@! TF.FileFunction,Legend,Top*
%FSLAX46Y46*%
G04 Gerber Fmt 4.6, Leading zero omitted, Abs format (unit mm)*
G04 Created by KiCad (PCBNEW 4.0.6) date Sunday, July 16, 2017 'PMt' 05:41:14 PM*
%MOMM*%
%LPD*%
G01*
G04 APERTURE LIST*
%ADD10C,0.100000*%
%ADD11C,0.200000*%
%ADD12C,0.127000*%
%ADD13C,0.300000*%
%ADD14C,0.120000*%
%ADD15C,0.150000*%
G04 APERTURE END LIST*
D10*
D11*
X134620000Y-134112000D02*
X136652000Y-134112000D01*
X134620000Y-119888000D02*
X136652000Y-119888000D01*
X134620000Y-127000000D02*
X136652000Y-127000000D01*
X134620000Y-128524000D02*
X134620000Y-127000000D01*
D12*
X134275286Y-132587999D02*
X134239000Y-132551713D01*
X134202714Y-132479142D01*
X134202714Y-132297713D01*
X134239000Y-132225142D01*
X134275286Y-132188856D01*
X134347857Y-132152571D01*
X134420429Y-132152571D01*
X134529286Y-132188856D01*
X134964714Y-132624285D01*
X134964714Y-132152571D01*
X134892143Y-131825999D02*
X134928429Y-131789714D01*
X134964714Y-131825999D01*
X134928429Y-131862285D01*
X134892143Y-131825999D01*
X134964714Y-131825999D01*
X134202714Y-131100285D02*
X134202714Y-131463142D01*
X134565571Y-131499428D01*
X134529286Y-131463142D01*
X134493000Y-131390571D01*
X134493000Y-131209142D01*
X134529286Y-131136571D01*
X134565571Y-131100285D01*
X134638143Y-131064000D01*
X134819571Y-131064000D01*
X134892143Y-131100285D01*
X134928429Y-131136571D01*
X134964714Y-131209142D01*
X134964714Y-131390571D01*
X134928429Y-131463142D01*
X134892143Y-131499428D01*
X134964714Y-130737428D02*
X134456714Y-130737428D01*
X134529286Y-130737428D02*
X134493000Y-130701143D01*
X134456714Y-130628571D01*
X134456714Y-130519714D01*
X134493000Y-130447143D01*
X134565571Y-130410857D01*
X134964714Y-130410857D01*
X134565571Y-130410857D02*
X134493000Y-130374571D01*
X134456714Y-130302000D01*
X134456714Y-130193143D01*
X134493000Y-130120571D01*
X134565571Y-130084286D01*
X134964714Y-130084286D01*
X134964714Y-129721428D02*
X134456714Y-129721428D01*
X134529286Y-129721428D02*
X134493000Y-129685143D01*
X134456714Y-129612571D01*
X134456714Y-129503714D01*
X134493000Y-129431143D01*
X134565571Y-129394857D01*
X134964714Y-129394857D01*
X134565571Y-129394857D02*
X134493000Y-129358571D01*
X134456714Y-129286000D01*
X134456714Y-129177143D01*
X134493000Y-129104571D01*
X134565571Y-129068286D01*
X134964714Y-129068286D01*
D11*
X134620000Y-133096000D02*
X134620000Y-134112000D01*
X134620000Y-125476000D02*
X134620000Y-127000000D01*
X134620000Y-120904000D02*
X134620000Y-119888000D01*
D12*
X134202714Y-125004285D02*
X134202714Y-124532571D01*
X134493000Y-124786571D01*
X134493000Y-124677713D01*
X134529286Y-124605142D01*
X134565571Y-124568856D01*
X134638143Y-124532571D01*
X134819571Y-124532571D01*
X134892143Y-124568856D01*
X134928429Y-124605142D01*
X134964714Y-124677713D01*
X134964714Y-124895428D01*
X134928429Y-124967999D01*
X134892143Y-125004285D01*
X134892143Y-124205999D02*
X134928429Y-124169714D01*
X134964714Y-124205999D01*
X134928429Y-124242285D01*
X134892143Y-124205999D01*
X134964714Y-124205999D01*
X134202714Y-123480285D02*
X134202714Y-123843142D01*
X134565571Y-123879428D01*
X134529286Y-123843142D01*
X134493000Y-123770571D01*
X134493000Y-123589142D01*
X134529286Y-123516571D01*
X134565571Y-123480285D01*
X134638143Y-123444000D01*
X134819571Y-123444000D01*
X134892143Y-123480285D01*
X134928429Y-123516571D01*
X134964714Y-123589142D01*
X134964714Y-123770571D01*
X134928429Y-123843142D01*
X134892143Y-123879428D01*
X134964714Y-123117428D02*
X134456714Y-123117428D01*
X134529286Y-123117428D02*
X134493000Y-123081143D01*
X134456714Y-123008571D01*
X134456714Y-122899714D01*
X134493000Y-122827143D01*
X134565571Y-122790857D01*
X134964714Y-122790857D01*
X134565571Y-122790857D02*
X134493000Y-122754571D01*
X134456714Y-122682000D01*
X134456714Y-122573143D01*
X134493000Y-122500571D01*
X134565571Y-122464286D01*
X134964714Y-122464286D01*
X134964714Y-122101428D02*
X134456714Y-122101428D01*
X134529286Y-122101428D02*
X134493000Y-122065143D01*
X134456714Y-121992571D01*
X134456714Y-121883714D01*
X134493000Y-121811143D01*
X134565571Y-121774857D01*
X134964714Y-121774857D01*
X134565571Y-121774857D02*
X134493000Y-121738571D01*
X134456714Y-121666000D01*
X134456714Y-121557143D01*
X134493000Y-121484571D01*
X134565571Y-121448286D01*
X134964714Y-121448286D01*
X136452429Y-133567714D02*
X136488714Y-133458857D01*
X136488714Y-133277428D01*
X136452429Y-133204857D01*
X136416143Y-133168571D01*
X136343571Y-133132286D01*
X136271000Y-133132286D01*
X136198429Y-133168571D01*
X136162143Y-133204857D01*
X136125857Y-133277428D01*
X136089571Y-133422571D01*
X136053286Y-133495143D01*
X136017000Y-133531428D01*
X135944429Y-133567714D01*
X135871857Y-133567714D01*
X135799286Y-133531428D01*
X135763000Y-133495143D01*
X135726714Y-133422571D01*
X135726714Y-133241143D01*
X135763000Y-133132286D01*
X136488714Y-130574143D02*
X136125857Y-130828143D01*
X136488714Y-131009571D02*
X135726714Y-131009571D01*
X135726714Y-130719286D01*
X135763000Y-130646714D01*
X135799286Y-130610429D01*
X135871857Y-130574143D01*
X135980714Y-130574143D01*
X136053286Y-130610429D01*
X136089571Y-130646714D01*
X136125857Y-130719286D01*
X136125857Y-131009571D01*
X135726714Y-128487714D02*
X135726714Y-128052285D01*
X136488714Y-128269999D02*
X135726714Y-128269999D01*
X136452429Y-125947714D02*
X136488714Y-125838857D01*
X136488714Y-125657428D01*
X136452429Y-125584857D01*
X136416143Y-125548571D01*
X136343571Y-125512286D01*
X136271000Y-125512286D01*
X136198429Y-125548571D01*
X136162143Y-125584857D01*
X136125857Y-125657428D01*
X136089571Y-125802571D01*
X136053286Y-125875143D01*
X136017000Y-125911428D01*
X135944429Y-125947714D01*
X135871857Y-125947714D01*
X135799286Y-125911428D01*
X135763000Y-125875143D01*
X135726714Y-125802571D01*
X135726714Y-125621143D01*
X135763000Y-125512286D01*
X136488714Y-122954143D02*
X136125857Y-123208143D01*
X136488714Y-123389571D02*
X135726714Y-123389571D01*
X135726714Y-123099286D01*
X135763000Y-123026714D01*
X135799286Y-122990429D01*
X135871857Y-122954143D01*
X135980714Y-122954143D01*
X136053286Y-122990429D01*
X136089571Y-123026714D01*
X136125857Y-123099286D01*
X136125857Y-123389571D01*
X135726714Y-120867714D02*
X135726714Y-120432285D01*
X136488714Y-120649999D02*
X135726714Y-120649999D01*
X102289428Y-121539000D02*
X102216857Y-121502714D01*
X102108000Y-121502714D01*
X101999143Y-121539000D01*
X101926571Y-121611571D01*
X101890286Y-121684143D01*
X101854000Y-121829286D01*
X101854000Y-121938143D01*
X101890286Y-122083286D01*
X101926571Y-122155857D01*
X101999143Y-122228429D01*
X102108000Y-122264714D01*
X102180571Y-122264714D01*
X102289428Y-122228429D01*
X102325714Y-122192143D01*
X102325714Y-121938143D01*
X102180571Y-121938143D01*
X102652286Y-122264714D02*
X102652286Y-121502714D01*
X103087714Y-122264714D01*
X103087714Y-121502714D01*
X103450572Y-122264714D02*
X103450572Y-121502714D01*
X103632000Y-121502714D01*
X103740857Y-121539000D01*
X103813429Y-121611571D01*
X103849714Y-121684143D01*
X103886000Y-121829286D01*
X103886000Y-121938143D01*
X103849714Y-122083286D01*
X103813429Y-122155857D01*
X103740857Y-122228429D01*
X103632000Y-122264714D01*
X103450572Y-122264714D01*
X102089858Y-124804714D02*
X102089858Y-124042714D01*
X102380143Y-124042714D01*
X102452715Y-124079000D01*
X102489000Y-124115286D01*
X102525286Y-124187857D01*
X102525286Y-124296714D01*
X102489000Y-124369286D01*
X102452715Y-124405571D01*
X102380143Y-124441857D01*
X102089858Y-124441857D01*
X102743000Y-124042714D02*
X103178429Y-124042714D01*
X102960715Y-124804714D02*
X102960715Y-124042714D01*
X103323571Y-124042714D02*
X103759000Y-124042714D01*
X103541286Y-124804714D02*
X103541286Y-124042714D01*
X102743000Y-127344714D02*
X102489000Y-126981857D01*
X102307572Y-127344714D02*
X102307572Y-126582714D01*
X102597857Y-126582714D01*
X102670429Y-126619000D01*
X102706714Y-126655286D01*
X102743000Y-126727857D01*
X102743000Y-126836714D01*
X102706714Y-126909286D01*
X102670429Y-126945571D01*
X102597857Y-126981857D01*
X102307572Y-126981857D01*
X102997000Y-126582714D02*
X103505000Y-127344714D01*
X103505000Y-126582714D02*
X102997000Y-127344714D01*
X102289429Y-129122714D02*
X102724858Y-129122714D01*
X102507144Y-129884714D02*
X102507144Y-129122714D01*
X102906286Y-129122714D02*
X103414286Y-129884714D01*
X103414286Y-129122714D02*
X102906286Y-129884714D01*
D13*
X138426000Y-118009999D02*
X138426000Y-117295713D01*
X138854571Y-118152856D02*
X137354571Y-117652856D01*
X138854571Y-117152856D01*
X137426000Y-115867142D02*
X137354571Y-116009999D01*
X137354571Y-116224285D01*
X137426000Y-116438570D01*
X137568857Y-116581428D01*
X137711714Y-116652856D01*
X137997429Y-116724285D01*
X138211714Y-116724285D01*
X138497429Y-116652856D01*
X138640286Y-116581428D01*
X138783143Y-116438570D01*
X138854571Y-116224285D01*
X138854571Y-116081428D01*
X138783143Y-115867142D01*
X138711714Y-115795713D01*
X138211714Y-115795713D01*
X138211714Y-116081428D01*
X137354571Y-114509999D02*
X137354571Y-114795713D01*
X137426000Y-114938570D01*
X137497429Y-115009999D01*
X137711714Y-115152856D01*
X137997429Y-115224285D01*
X138568857Y-115224285D01*
X138711714Y-115152856D01*
X138783143Y-115081428D01*
X138854571Y-114938570D01*
X138854571Y-114652856D01*
X138783143Y-114509999D01*
X138711714Y-114438570D01*
X138568857Y-114367142D01*
X138211714Y-114367142D01*
X138068857Y-114438570D01*
X137997429Y-114509999D01*
X137926000Y-114652856D01*
X137926000Y-114938570D01*
X137997429Y-115081428D01*
X138068857Y-115152856D01*
X138211714Y-115224285D01*
X137426000Y-112938571D02*
X137354571Y-113081428D01*
X137354571Y-113295714D01*
X137426000Y-113509999D01*
X137568857Y-113652857D01*
X137711714Y-113724285D01*
X137997429Y-113795714D01*
X138211714Y-113795714D01*
X138497429Y-113724285D01*
X138640286Y-113652857D01*
X138783143Y-113509999D01*
X138854571Y-113295714D01*
X138854571Y-113152857D01*
X138783143Y-112938571D01*
X138711714Y-112867142D01*
X138211714Y-112867142D01*
X138211714Y-113152857D01*
X138854571Y-111367142D02*
X138140286Y-111867142D01*
X138854571Y-112224285D02*
X137354571Y-112224285D01*
X137354571Y-111652857D01*
X137426000Y-111509999D01*
X137497429Y-111438571D01*
X137640286Y-111367142D01*
X137854571Y-111367142D01*
X137997429Y-111438571D01*
X138068857Y-111509999D01*
X138140286Y-111652857D01*
X138140286Y-112224285D01*
X137854571Y-109724285D02*
X138854571Y-109367142D01*
X137854571Y-109010000D01*
X138854571Y-107652857D02*
X138854571Y-108510000D01*
X138854571Y-108081428D02*
X137354571Y-108081428D01*
X137568857Y-108224285D01*
X137711714Y-108367143D01*
X137783143Y-108510000D01*
X138711714Y-107010000D02*
X138783143Y-106938572D01*
X138854571Y-107010000D01*
X138783143Y-107081429D01*
X138711714Y-107010000D01*
X138854571Y-107010000D01*
X137354571Y-106010000D02*
X137354571Y-105867143D01*
X137426000Y-105724286D01*
X137497429Y-105652857D01*
X137640286Y-105581428D01*
X137926000Y-105510000D01*
X138283143Y-105510000D01*
X138568857Y-105581428D01*
X138711714Y-105652857D01*
X138783143Y-105724286D01*
X138854571Y-105867143D01*
X138854571Y-106010000D01*
X138783143Y-106152857D01*
X138711714Y-106224286D01*
X138568857Y-106295714D01*
X138283143Y-106367143D01*
X137926000Y-106367143D01*
X137640286Y-106295714D01*
X137497429Y-106224286D01*
X137426000Y-106152857D01*
X137354571Y-106010000D01*
X136285857Y-145918571D02*
X136357286Y-145704285D01*
X136428714Y-145632857D01*
X136571571Y-145561428D01*
X136785857Y-145561428D01*
X136928714Y-145632857D01*
X137000143Y-145704285D01*
X137071571Y-145847143D01*
X137071571Y-146418571D01*
X135571571Y-146418571D01*
X135571571Y-145918571D01*
X135643000Y-145775714D01*
X135714429Y-145704285D01*
X135857286Y-145632857D01*
X136000143Y-145632857D01*
X136143000Y-145704285D01*
X136214429Y-145775714D01*
X136285857Y-145918571D01*
X136285857Y-146418571D01*
X137071571Y-144275714D02*
X136285857Y-144275714D01*
X136143000Y-144347143D01*
X136071571Y-144490000D01*
X136071571Y-144775714D01*
X136143000Y-144918571D01*
X137000143Y-144275714D02*
X137071571Y-144418571D01*
X137071571Y-144775714D01*
X137000143Y-144918571D01*
X136857286Y-144990000D01*
X136714429Y-144990000D01*
X136571571Y-144918571D01*
X136500143Y-144775714D01*
X136500143Y-144418571D01*
X136428714Y-144275714D01*
X137071571Y-143347142D02*
X137000143Y-143490000D01*
X136928714Y-143561428D01*
X136785857Y-143632857D01*
X136357286Y-143632857D01*
X136214429Y-143561428D01*
X136143000Y-143490000D01*
X136071571Y-143347142D01*
X136071571Y-143132857D01*
X136143000Y-142990000D01*
X136214429Y-142918571D01*
X136357286Y-142847142D01*
X136785857Y-142847142D01*
X136928714Y-142918571D01*
X137000143Y-142990000D01*
X137071571Y-143132857D01*
X137071571Y-143347142D01*
X136071571Y-142418571D02*
X136071571Y-141847142D01*
X137071571Y-142204285D02*
X135785857Y-142204285D01*
X135643000Y-142132857D01*
X135571571Y-141989999D01*
X135571571Y-141847142D01*
X137000143Y-140775714D02*
X137071571Y-140918571D01*
X137071571Y-141204285D01*
X137000143Y-141347142D01*
X136857286Y-141418571D01*
X136285857Y-141418571D01*
X136143000Y-141347142D01*
X136071571Y-141204285D01*
X136071571Y-140918571D01*
X136143000Y-140775714D01*
X136285857Y-140704285D01*
X136428714Y-140704285D01*
X136571571Y-141418571D01*
X136071571Y-140061428D02*
X137071571Y-140061428D01*
X136214429Y-140061428D02*
X136143000Y-139990000D01*
X136071571Y-139847142D01*
X136071571Y-139632857D01*
X136143000Y-139490000D01*
X136285857Y-139418571D01*
X137071571Y-139418571D01*
X136071571Y-138061428D02*
X137285857Y-138061428D01*
X137428714Y-138132857D01*
X137500143Y-138204285D01*
X137571571Y-138347142D01*
X137571571Y-138561428D01*
X137500143Y-138704285D01*
X137000143Y-138061428D02*
X137071571Y-138204285D01*
X137071571Y-138489999D01*
X137000143Y-138632857D01*
X136928714Y-138704285D01*
X136785857Y-138775714D01*
X136357286Y-138775714D01*
X136214429Y-138704285D01*
X136143000Y-138632857D01*
X136071571Y-138489999D01*
X136071571Y-138204285D01*
X136143000Y-138061428D01*
X139621571Y-146847142D02*
X138121571Y-146847142D01*
X138621571Y-146132856D02*
X139621571Y-146132856D01*
X138764429Y-146132856D02*
X138693000Y-146061428D01*
X138621571Y-145918570D01*
X138621571Y-145704285D01*
X138693000Y-145561428D01*
X138835857Y-145489999D01*
X139621571Y-145489999D01*
X138621571Y-144989999D02*
X138621571Y-144418570D01*
X138121571Y-144775713D02*
X139407286Y-144775713D01*
X139550143Y-144704285D01*
X139621571Y-144561427D01*
X139621571Y-144418570D01*
X139550143Y-143347142D02*
X139621571Y-143489999D01*
X139621571Y-143775713D01*
X139550143Y-143918570D01*
X139407286Y-143989999D01*
X138835857Y-143989999D01*
X138693000Y-143918570D01*
X138621571Y-143775713D01*
X138621571Y-143489999D01*
X138693000Y-143347142D01*
X138835857Y-143275713D01*
X138978714Y-143275713D01*
X139121571Y-143989999D01*
X139621571Y-142632856D02*
X138621571Y-142632856D01*
X138907286Y-142632856D02*
X138764429Y-142561428D01*
X138693000Y-142489999D01*
X138621571Y-142347142D01*
X138621571Y-142204285D01*
X138621571Y-141918571D02*
X138621571Y-141347142D01*
X139621571Y-141704285D02*
X138335857Y-141704285D01*
X138193000Y-141632857D01*
X138121571Y-141489999D01*
X138121571Y-141347142D01*
X139621571Y-140204285D02*
X138835857Y-140204285D01*
X138693000Y-140275714D01*
X138621571Y-140418571D01*
X138621571Y-140704285D01*
X138693000Y-140847142D01*
X139550143Y-140204285D02*
X139621571Y-140347142D01*
X139621571Y-140704285D01*
X139550143Y-140847142D01*
X139407286Y-140918571D01*
X139264429Y-140918571D01*
X139121571Y-140847142D01*
X139050143Y-140704285D01*
X139050143Y-140347142D01*
X138978714Y-140204285D01*
X139550143Y-138847142D02*
X139621571Y-138989999D01*
X139621571Y-139275713D01*
X139550143Y-139418571D01*
X139478714Y-139489999D01*
X139335857Y-139561428D01*
X138907286Y-139561428D01*
X138764429Y-139489999D01*
X138693000Y-139418571D01*
X138621571Y-139275713D01*
X138621571Y-138989999D01*
X138693000Y-138847142D01*
X139550143Y-137632857D02*
X139621571Y-137775714D01*
X139621571Y-138061428D01*
X139550143Y-138204285D01*
X139407286Y-138275714D01*
X138835857Y-138275714D01*
X138693000Y-138204285D01*
X138621571Y-138061428D01*
X138621571Y-137775714D01*
X138693000Y-137632857D01*
X138835857Y-137561428D01*
X138978714Y-137561428D01*
X139121571Y-138275714D01*
X103457858Y-149014571D02*
X102957858Y-148300286D01*
X102600715Y-149014571D02*
X102600715Y-147514571D01*
X103172143Y-147514571D01*
X103315001Y-147586000D01*
X103386429Y-147657429D01*
X103457858Y-147800286D01*
X103457858Y-148014571D01*
X103386429Y-148157429D01*
X103315001Y-148228857D01*
X103172143Y-148300286D01*
X102600715Y-148300286D01*
X103957858Y-147514571D02*
X104957858Y-149014571D01*
X104957858Y-147514571D02*
X103957858Y-149014571D01*
X106600714Y-148586000D02*
X107315000Y-148586000D01*
X106457857Y-149014571D02*
X106957857Y-147514571D01*
X107457857Y-149014571D01*
X108600714Y-148014571D02*
X108600714Y-149014571D01*
X107957857Y-148014571D02*
X107957857Y-148800286D01*
X108029285Y-148943143D01*
X108172143Y-149014571D01*
X108386428Y-149014571D01*
X108529285Y-148943143D01*
X108600714Y-148871714D01*
X109957857Y-149014571D02*
X109957857Y-147514571D01*
X109957857Y-148943143D02*
X109815000Y-149014571D01*
X109529286Y-149014571D01*
X109386428Y-148943143D01*
X109315000Y-148871714D01*
X109243571Y-148728857D01*
X109243571Y-148300286D01*
X109315000Y-148157429D01*
X109386428Y-148086000D01*
X109529286Y-148014571D01*
X109815000Y-148014571D01*
X109957857Y-148086000D01*
X110672143Y-149014571D02*
X110672143Y-148014571D01*
X110672143Y-147514571D02*
X110600714Y-147586000D01*
X110672143Y-147657429D01*
X110743571Y-147586000D01*
X110672143Y-147514571D01*
X110672143Y-147657429D01*
X111600715Y-149014571D02*
X111457857Y-148943143D01*
X111386429Y-148871714D01*
X111315000Y-148728857D01*
X111315000Y-148300286D01*
X111386429Y-148157429D01*
X111457857Y-148086000D01*
X111600715Y-148014571D01*
X111815000Y-148014571D01*
X111957857Y-148086000D01*
X112029286Y-148157429D01*
X112100715Y-148300286D01*
X112100715Y-148728857D01*
X112029286Y-148871714D01*
X111957857Y-148943143D01*
X111815000Y-149014571D01*
X111600715Y-149014571D01*
X111938000Y-106485429D02*
X111080857Y-106485429D01*
X111509428Y-104985429D02*
X111509428Y-106485429D01*
X110723714Y-106485429D02*
X109723714Y-104985429D01*
X109723714Y-106485429D02*
X110723714Y-104985429D01*
X108080858Y-105414000D02*
X107366572Y-105414000D01*
X108223715Y-104985429D02*
X107723715Y-106485429D01*
X107223715Y-104985429D01*
X106080858Y-105985429D02*
X106080858Y-104985429D01*
X106723715Y-105985429D02*
X106723715Y-105199714D01*
X106652287Y-105056857D01*
X106509429Y-104985429D01*
X106295144Y-104985429D01*
X106152287Y-105056857D01*
X106080858Y-105128286D01*
X104723715Y-104985429D02*
X104723715Y-106485429D01*
X104723715Y-105056857D02*
X104866572Y-104985429D01*
X105152286Y-104985429D01*
X105295144Y-105056857D01*
X105366572Y-105128286D01*
X105438001Y-105271143D01*
X105438001Y-105699714D01*
X105366572Y-105842571D01*
X105295144Y-105914000D01*
X105152286Y-105985429D01*
X104866572Y-105985429D01*
X104723715Y-105914000D01*
X104009429Y-104985429D02*
X104009429Y-105985429D01*
X104009429Y-106485429D02*
X104080858Y-106414000D01*
X104009429Y-106342571D01*
X103938001Y-106414000D01*
X104009429Y-106485429D01*
X104009429Y-106342571D01*
X103080857Y-104985429D02*
X103223715Y-105056857D01*
X103295143Y-105128286D01*
X103366572Y-105271143D01*
X103366572Y-105699714D01*
X103295143Y-105842571D01*
X103223715Y-105914000D01*
X103080857Y-105985429D01*
X102866572Y-105985429D01*
X102723715Y-105914000D01*
X102652286Y-105842571D01*
X102580857Y-105699714D01*
X102580857Y-105271143D01*
X102652286Y-105128286D01*
X102723715Y-105056857D01*
X102866572Y-104985429D01*
X103080857Y-104985429D01*
D14*
X137040000Y-121920000D02*
X137040000Y-134740000D01*
X137040000Y-134740000D02*
X139820000Y-134740000D01*
X139820000Y-134740000D02*
X139820000Y-121920000D01*
X139820000Y-121920000D02*
X137040000Y-121920000D01*
X137040000Y-120650000D02*
X137040000Y-119260000D01*
X137040000Y-119260000D02*
X138430000Y-119260000D01*
X115690000Y-111887000D02*
X115690000Y-106687000D01*
X115690000Y-106687000D02*
X112910000Y-106687000D01*
X112910000Y-106687000D02*
X112910000Y-111887000D01*
X112910000Y-111887000D02*
X115690000Y-111887000D01*
X115690000Y-113157000D02*
X115690000Y-114547000D01*
X115690000Y-114547000D02*
X114300000Y-114547000D01*
D15*
X99110000Y-143970000D02*
X100910000Y-143970000D01*
X99110000Y-137970000D02*
X99110000Y-143970000D01*
X100910000Y-137970000D02*
X99110000Y-137970000D01*
X102110000Y-138970000D02*
X100910000Y-138970000D01*
X102110000Y-142970000D02*
X102110000Y-138970000D01*
X100910000Y-142970000D02*
X102110000Y-142970000D01*
X100910000Y-145470000D02*
X100910000Y-142970000D01*
X102110000Y-145470000D02*
X100910000Y-145470000D01*
X102110000Y-146970000D02*
X102110000Y-145470000D01*
X112410000Y-146970000D02*
X102110000Y-146970000D01*
X112410000Y-134970000D02*
X112410000Y-146970000D01*
X102110000Y-134970000D02*
X112410000Y-134970000D01*
X102110000Y-136470000D02*
X102110000Y-134970000D01*
X100910000Y-136470000D02*
X102110000Y-136470000D01*
X100910000Y-138970000D02*
X100910000Y-136470000D01*
X99110000Y-116030000D02*
X100910000Y-116030000D01*
X99110000Y-110030000D02*
X99110000Y-116030000D01*
X100910000Y-110030000D02*
X99110000Y-110030000D01*
X102110000Y-111030000D02*
X100910000Y-111030000D01*
X102110000Y-115030000D02*
X102110000Y-111030000D01*
X100910000Y-115030000D02*
X102110000Y-115030000D01*
X100910000Y-117530000D02*
X100910000Y-115030000D01*
X102110000Y-117530000D02*
X100910000Y-117530000D01*
X102110000Y-119030000D02*
X102110000Y-117530000D01*
X112410000Y-119030000D02*
X102110000Y-119030000D01*
X112410000Y-107030000D02*
X112410000Y-119030000D01*
X102110000Y-107030000D02*
X112410000Y-107030000D01*
X102110000Y-108530000D02*
X102110000Y-107030000D01*
X100910000Y-108530000D02*
X102110000Y-108530000D01*
X100910000Y-111030000D02*
X100910000Y-108530000D01*
D14*
X109340000Y-128270000D02*
X109340000Y-120530000D01*
X109340000Y-120530000D02*
X104020000Y-120530000D01*
X104020000Y-120530000D02*
X104020000Y-130930000D01*
X104020000Y-130930000D02*
X106680000Y-130930000D01*
X106680000Y-130930000D02*
X106680000Y-128270000D01*
X106680000Y-128270000D02*
X109340000Y-128270000D01*
X109340000Y-129540000D02*
X109340000Y-130930000D01*
X109340000Y-130930000D02*
X107950000Y-130930000D01*
D15*
X122055000Y-120260000D02*
X122055000Y-121530000D01*
X129405000Y-120260000D02*
X129405000Y-121530000D01*
X129405000Y-127390000D02*
X129405000Y-126120000D01*
X122055000Y-127390000D02*
X122055000Y-126120000D01*
X122055000Y-120260000D02*
X129405000Y-120260000D01*
X122055000Y-127390000D02*
X129405000Y-127390000D01*
X122055000Y-121530000D02*
X121120000Y-121530000D01*
D14*
X125730000Y-128150000D02*
X123070000Y-128150000D01*
X123070000Y-128150000D02*
X123070000Y-130930000D01*
X123070000Y-130930000D02*
X125730000Y-130930000D01*
X125730000Y-130930000D02*
X125730000Y-128150000D01*
X127000000Y-128150000D02*
X128390000Y-128150000D01*
X128390000Y-128150000D02*
X128390000Y-129540000D01*
X125730000Y-131198000D02*
X123070000Y-131198000D01*
X123070000Y-131198000D02*
X123070000Y-133978000D01*
X123070000Y-133978000D02*
X125730000Y-133978000D01*
X125730000Y-133978000D02*
X125730000Y-131198000D01*
X127000000Y-131198000D02*
X128390000Y-131198000D01*
X128390000Y-131198000D02*
X128390000Y-132588000D01*
D15*
X119380000Y-150495000D02*
G75*
G03X119380000Y-150495000I-635000J0D01*
G01*
X127635000Y-139700000D02*
X130810000Y-139700000D01*
X127635000Y-147320000D02*
X130810000Y-147320000D01*
X123825000Y-147320000D02*
X120650000Y-147320000D01*
X123825000Y-139700000D02*
X120650000Y-139700000D01*
X126365000Y-147320000D02*
X126365000Y-139700000D01*
X125095000Y-147320000D02*
X125095000Y-139700000D01*
X123825000Y-142240000D02*
G75*
G03X123825000Y-140970000I0J635000D01*
G01*
X123825000Y-147320000D02*
G75*
G03X123825000Y-146050000I0J635000D01*
G01*
X123825000Y-143510000D02*
G75*
G03X123825000Y-142240000I0J635000D01*
G01*
X123825000Y-146050000D02*
G75*
G03X123825000Y-144780000I0J635000D01*
G01*
X123825000Y-144780000D02*
G75*
G03X123825000Y-143510000I0J635000D01*
G01*
X134620000Y-134620000D02*
X116840000Y-134620000D01*
X134620000Y-152400000D02*
X134620000Y-134620000D01*
X116840000Y-152400000D02*
X134620000Y-152400000D01*
X116840000Y-134620000D02*
X116840000Y-152400000D01*
X127635000Y-143510000D02*
G75*
G03X127635000Y-144780000I0J-635000D01*
G01*
X127635000Y-142240000D02*
G75*
G03X127635000Y-143510000I0J-635000D01*
G01*
X127635000Y-144780000D02*
G75*
G03X127635000Y-146050000I0J-635000D01*
G01*
X127635000Y-140970000D02*
G75*
G03X127635000Y-142240000I0J-635000D01*
G01*
X127635000Y-146050000D02*
G75*
G03X127635000Y-147320000I0J-635000D01*
G01*
X127635000Y-139700000D02*
G75*
G03X127635000Y-140970000I0J-635000D01*
G01*
X123825000Y-140970000D02*
G75*
G03X123825000Y-139700000I0J635000D01*
G01*
X119380000Y-117475000D02*
G75*
G03X119380000Y-117475000I-635000J0D01*
G01*
X127635000Y-106680000D02*
X130810000Y-106680000D01*
X127635000Y-114300000D02*
X130810000Y-114300000D01*
X123825000Y-114300000D02*
X120650000Y-114300000D01*
X123825000Y-106680000D02*
X120650000Y-106680000D01*
X126365000Y-114300000D02*
X126365000Y-106680000D01*
X125095000Y-114300000D02*
X125095000Y-106680000D01*
X123825000Y-109220000D02*
G75*
G03X123825000Y-107950000I0J635000D01*
G01*
X123825000Y-114300000D02*
G75*
G03X123825000Y-113030000I0J635000D01*
G01*
X123825000Y-110490000D02*
G75*
G03X123825000Y-109220000I0J635000D01*
G01*
X123825000Y-113030000D02*
G75*
G03X123825000Y-111760000I0J635000D01*
G01*
X123825000Y-111760000D02*
G75*
G03X123825000Y-110490000I0J635000D01*
G01*
X134620000Y-101600000D02*
X116840000Y-101600000D01*
X134620000Y-119380000D02*
X134620000Y-101600000D01*
X116840000Y-119380000D02*
X134620000Y-119380000D01*
X116840000Y-101600000D02*
X116840000Y-119380000D01*
X127635000Y-110490000D02*
G75*
G03X127635000Y-111760000I0J-635000D01*
G01*
X127635000Y-109220000D02*
G75*
G03X127635000Y-110490000I0J-635000D01*
G01*
X127635000Y-111760000D02*
G75*
G03X127635000Y-113030000I0J-635000D01*
G01*
X127635000Y-107950000D02*
G75*
G03X127635000Y-109220000I0J-635000D01*
G01*
X127635000Y-113030000D02*
G75*
G03X127635000Y-114300000I0J-635000D01*
G01*
X127635000Y-106680000D02*
G75*
G03X127635000Y-107950000I0J-635000D01*
G01*
X123825000Y-107950000D02*
G75*
G03X123825000Y-106680000I0J635000D01*
G01*
X118110000Y-123825000D02*
X113030000Y-123825000D01*
X113030000Y-123825000D02*
X113030000Y-121285000D01*
X113030000Y-121285000D02*
X118110000Y-121285000D01*
X118110000Y-121285000D02*
X118110000Y-123825000D01*
X137842667Y-135088381D02*
X137842667Y-135802667D01*
X137795047Y-135945524D01*
X137699809Y-136040762D01*
X137556952Y-136088381D01*
X137461714Y-136088381D01*
X138842667Y-136088381D02*
X138271238Y-136088381D01*
X138556952Y-136088381D02*
X138556952Y-135088381D01*
X138461714Y-135231238D01*
X138366476Y-135326476D01*
X138271238Y-135374095D01*
X113966667Y-115022381D02*
X113966667Y-115736667D01*
X113919047Y-115879524D01*
X113823809Y-115974762D01*
X113680952Y-116022381D01*
X113585714Y-116022381D01*
X114919048Y-115022381D02*
X114442857Y-115022381D01*
X114395238Y-115498571D01*
X114442857Y-115450952D01*
X114538095Y-115403333D01*
X114776191Y-115403333D01*
X114871429Y-115450952D01*
X114919048Y-115498571D01*
X114966667Y-115593810D01*
X114966667Y-115831905D01*
X114919048Y-115927143D01*
X114871429Y-115974762D01*
X114776191Y-116022381D01*
X114538095Y-116022381D01*
X114442857Y-115974762D01*
X114395238Y-115927143D01*
X107402381Y-141303333D02*
X108116667Y-141303333D01*
X108259524Y-141350953D01*
X108354762Y-141446191D01*
X108402381Y-141589048D01*
X108402381Y-141684286D01*
X107735714Y-140398571D02*
X108402381Y-140398571D01*
X107354762Y-140636667D02*
X108069048Y-140874762D01*
X108069048Y-140255714D01*
X107402381Y-113363333D02*
X108116667Y-113363333D01*
X108259524Y-113410953D01*
X108354762Y-113506191D01*
X108402381Y-113649048D01*
X108402381Y-113744286D01*
X107402381Y-112982381D02*
X107402381Y-112363333D01*
X107783333Y-112696667D01*
X107783333Y-112553809D01*
X107830952Y-112458571D01*
X107878571Y-112410952D01*
X107973810Y-112363333D01*
X108211905Y-112363333D01*
X108307143Y-112410952D01*
X108354762Y-112458571D01*
X108402381Y-112553809D01*
X108402381Y-112839524D01*
X108354762Y-112934762D01*
X108307143Y-112982381D01*
X106346667Y-131382381D02*
X106346667Y-132096667D01*
X106299047Y-132239524D01*
X106203809Y-132334762D01*
X106060952Y-132382381D01*
X105965714Y-132382381D01*
X107251429Y-131382381D02*
X107060952Y-131382381D01*
X106965714Y-131430000D01*
X106918095Y-131477619D01*
X106822857Y-131620476D01*
X106775238Y-131810952D01*
X106775238Y-132191905D01*
X106822857Y-132287143D01*
X106870476Y-132334762D01*
X106965714Y-132382381D01*
X107156191Y-132382381D01*
X107251429Y-132334762D01*
X107299048Y-132287143D01*
X107346667Y-132191905D01*
X107346667Y-131953810D01*
X107299048Y-131858571D01*
X107251429Y-131810952D01*
X107156191Y-131763333D01*
X106965714Y-131763333D01*
X106870476Y-131810952D01*
X106822857Y-131858571D01*
X106775238Y-131953810D01*
X131024381Y-121792905D02*
X131833905Y-121792905D01*
X131929143Y-121745286D01*
X131976762Y-121697667D01*
X132024381Y-121602429D01*
X132024381Y-121411952D01*
X131976762Y-121316714D01*
X131929143Y-121269095D01*
X131833905Y-121221476D01*
X131024381Y-121221476D01*
X132024381Y-120221476D02*
X132024381Y-120792905D01*
X132024381Y-120507191D02*
X131024381Y-120507191D01*
X131167238Y-120602429D01*
X131262476Y-120697667D01*
X131310095Y-120792905D01*
X128842381Y-129873333D02*
X129556667Y-129873333D01*
X129699524Y-129920953D01*
X129794762Y-130016191D01*
X129842381Y-130159048D01*
X129842381Y-130254286D01*
X128937619Y-129444762D02*
X128890000Y-129397143D01*
X128842381Y-129301905D01*
X128842381Y-129063809D01*
X128890000Y-128968571D01*
X128937619Y-128920952D01*
X129032857Y-128873333D01*
X129128095Y-128873333D01*
X129270952Y-128920952D01*
X129842381Y-129492381D01*
X129842381Y-128873333D01*
X128842381Y-132921333D02*
X129556667Y-132921333D01*
X129699524Y-132968953D01*
X129794762Y-133064191D01*
X129842381Y-133207048D01*
X129842381Y-133302286D01*
X128842381Y-132540381D02*
X128842381Y-131873714D01*
X129842381Y-132302286D01*
X115276381Y-148589905D02*
X115276381Y-148018476D01*
X116276381Y-148304191D02*
X115276381Y-148304191D01*
X116276381Y-147161333D02*
X116276381Y-147732762D01*
X116276381Y-147447048D02*
X115276381Y-147447048D01*
X115419238Y-147542286D01*
X115514476Y-147637524D01*
X115562095Y-147732762D01*
X115276381Y-119125905D02*
X115276381Y-118554476D01*
X116276381Y-118840191D02*
X115276381Y-118840191D01*
X115371619Y-118268762D02*
X115324000Y-118221143D01*
X115276381Y-118125905D01*
X115276381Y-117887809D01*
X115324000Y-117792571D01*
X115371619Y-117744952D01*
X115466857Y-117697333D01*
X115562095Y-117697333D01*
X115704952Y-117744952D01*
X116276381Y-118316381D01*
X116276381Y-117697333D01*
X115403334Y-125420381D02*
X115070000Y-124944190D01*
X114831905Y-125420381D02*
X114831905Y-124420381D01*
X115212858Y-124420381D01*
X115308096Y-124468000D01*
X115355715Y-124515619D01*
X115403334Y-124610857D01*
X115403334Y-124753714D01*
X115355715Y-124848952D01*
X115308096Y-124896571D01*
X115212858Y-124944190D01*
X114831905Y-124944190D01*
X116355715Y-125420381D02*
X115784286Y-125420381D01*
X116070000Y-125420381D02*
X116070000Y-124420381D01*
X115974762Y-124563238D01*
X115879524Y-124658476D01*
X115784286Y-124706095D01*
M02*
