M48
;DRILL file {KiCad 4.0.6} date Sunday, July 16, 2017 'PMt' 05:42:43 PM
;FORMAT={-:-/ absolute / inch / decimal}
FMAT,2
INCH,TZ
T1C0.013
T2C0.030
T3C0.031
T4C0.039
T5C0.039
T6C0.043
T7C0.047
%
G90
G05
M72
T1
X4.04Y-4.16
X4.04Y-4.32
X4.04Y-4.59
X4.04Y-4.72
X4.04Y-4.84
X4.04Y-5.09
X4.04Y-5.28
X4.04Y-5.42
X4.04Y-5.68
X4.04Y-5.84
X4.08Y-5.59
X4.1Y-4.95
X4.14Y-5.48
X4.15Y-5.17
X4.19Y-5.65
X4.2Y-4.75
X4.23Y-4.44
X4.24Y-4.26
X4.25Y-5.27
X4.26Y-5.46
X4.26Y-5.54
X4.27Y-5.73
X4.28Y-4.63
X4.28Y-5.18
X4.29Y-4.16
X4.29Y-5.84
X4.3Y-4.53
X4.3Y-4.95
X4.32Y-4.8
X4.32Y-5.1
X4.35Y-5.42
X4.35Y-5.61
X4.42Y-4.2
X4.42Y-4.63
X4.42Y-5.45
X4.42Y-5.56
X4.42Y-5.7
X4.44Y-4.3
X4.44Y-4.41
X4.48Y-5.84
X4.5Y-5.18
X4.5Y-5.27
X4.51Y-4.71
X4.54Y-4.16
X4.54Y-4.83
X4.54Y-5.
X4.54Y-5.08
X4.57Y-4.24
X4.57Y-4.38
X4.6Y-4.53
X4.6Y-5.45
X4.61Y-4.63
X4.64Y-5.56
X4.64Y-5.7
X4.64Y-5.84
X4.7Y-4.57
X4.75Y-4.77
X4.75Y-4.88
X4.76Y-5.08
X4.76Y-5.18
X4.76Y-5.27
X4.76Y-5.7
X4.76Y-5.84
X4.78Y-4.69
X4.79Y-4.16
X4.79Y-4.34
X4.83Y-5.49
X4.85Y-4.87
X4.86Y-5.16
X4.92Y-4.16
X4.92Y-4.34
X4.92Y-4.59
X4.92Y-4.84
X4.92Y-5.02
X4.92Y-5.3
X4.92Y-5.59
X4.92Y-5.84
X4.93Y-5.16
X4.98Y-4.16
X4.98Y-4.34
X4.98Y-4.59
X4.98Y-4.84
X4.98Y-5.02
X4.98Y-5.3
X4.98Y-5.59
X4.98Y-5.84
X5.06Y-4.46
X5.06Y-4.7
X5.06Y-5.16
X5.06Y-5.43
X5.06Y-5.73
X5.07Y-5.27
X5.09Y-4.34
X5.14Y-5.84
X5.15Y-4.16
X5.15Y-4.55
X5.15Y-4.7
X5.15Y-4.87
X5.17Y-5.36
X5.19Y-5.73
X5.2Y-4.43
X5.21Y-4.78
X5.21Y-5.02
X5.25Y-4.16
X5.25Y-4.32
X5.25Y-4.55
X5.26Y-5.84
X5.27Y-5.17
X5.27Y-5.27
X5.27Y-5.5
X5.27Y-5.66
X5.3Y-4.77
X5.3Y-4.88
X5.34Y-4.27
X5.34Y-5.09
X5.35Y-4.55
X5.37Y-5.18
X5.37Y-5.27
X5.37Y-5.5
X5.37Y-5.66
X5.38Y-4.72
X5.39Y-4.84
X5.4Y-5.
X5.4Y-5.77
X5.42Y-4.45
X5.5Y-4.16
X5.5Y-4.34
X5.5Y-4.59
X5.5Y-4.9
X5.5Y-5.1
X5.5Y-5.34
X5.5Y-5.59
X5.5Y-5.84
T2
X4.7Y-4.2
X4.7Y-4.5
X4.7Y-5.5
X4.7Y-5.8
X5.2Y-4.2
X5.2Y-4.5
X5.2Y-5.5
X5.2Y-5.8
T3
X4.8Y-4.825
X4.8Y-4.925
X5.1Y-4.825
X5.1Y-4.925
T4
X4.15Y-4.8
X4.15Y-4.9
X4.15Y-5.
X4.15Y-5.1
X4.25Y-4.8
X4.25Y-4.9
X4.25Y-5.
X4.25Y-5.1
X4.5Y-4.255
X4.5Y-4.355
X4.5Y-4.455
X4.9Y-5.1
X4.9Y-5.22
X5.Y-5.1
X5.Y-5.22
X5.45Y-4.75
X5.45Y-4.85
X5.45Y-4.95
X5.45Y-5.05
X5.45Y-5.15
X5.45Y-5.25
T5
X4.4Y-4.825
X4.7Y-4.825
T6
X4.15Y-4.45
X4.15Y-5.55
X4.3469Y-4.2531
X4.3469Y-4.6469
X4.3469Y-5.3531
X4.3469Y-5.7469
T7
X4.0516Y-4.2531
X4.0516Y-4.6469
X4.0516Y-5.3531
X4.0516Y-5.7469
X4.15Y-4.2531
X4.15Y-4.6469
X4.15Y-5.3531
X4.15Y-5.7469
X4.3469Y-4.45
X4.3469Y-5.55
T0
M30
