G04 #@! TF.FileFunction,Legend,Bot*
%FSLAX46Y46*%
G04 Gerber Fmt 4.6, Leading zero omitted, Abs format (unit mm)*
G04 Created by KiCad (PCBNEW 4.0.6) date Sunday, July 16, 2017 'PMt' 05:41:14 PM*
%MOMM*%
%LPD*%
G01*
G04 APERTURE LIST*
%ADD10C,0.100000*%
%ADD11C,0.200000*%
%ADD12C,0.127000*%
G04 APERTURE END LIST*
D10*
D11*
X134620000Y-119380000D02*
X136652000Y-119380000D01*
X134620000Y-120904000D02*
X134620000Y-119380000D01*
X134620000Y-125476000D02*
X134620000Y-127000000D01*
X134620000Y-134620000D02*
X136652000Y-134620000D01*
X134620000Y-133096000D02*
X134620000Y-134620000D01*
X134620000Y-127000000D02*
X136652000Y-127000000D01*
X134620000Y-128524000D02*
X134620000Y-127000000D01*
D12*
X134202714Y-121375715D02*
X134202714Y-121847429D01*
X134493000Y-121593429D01*
X134493000Y-121702287D01*
X134529286Y-121774858D01*
X134565571Y-121811144D01*
X134638143Y-121847429D01*
X134819571Y-121847429D01*
X134892143Y-121811144D01*
X134928429Y-121774858D01*
X134964714Y-121702287D01*
X134964714Y-121484572D01*
X134928429Y-121412001D01*
X134892143Y-121375715D01*
X134892143Y-122174001D02*
X134928429Y-122210286D01*
X134964714Y-122174001D01*
X134928429Y-122137715D01*
X134892143Y-122174001D01*
X134964714Y-122174001D01*
X134202714Y-122899715D02*
X134202714Y-122536858D01*
X134565571Y-122500572D01*
X134529286Y-122536858D01*
X134493000Y-122609429D01*
X134493000Y-122790858D01*
X134529286Y-122863429D01*
X134565571Y-122899715D01*
X134638143Y-122936000D01*
X134819571Y-122936000D01*
X134892143Y-122899715D01*
X134928429Y-122863429D01*
X134964714Y-122790858D01*
X134964714Y-122609429D01*
X134928429Y-122536858D01*
X134892143Y-122500572D01*
X134964714Y-123262572D02*
X134456714Y-123262572D01*
X134529286Y-123262572D02*
X134493000Y-123298857D01*
X134456714Y-123371429D01*
X134456714Y-123480286D01*
X134493000Y-123552857D01*
X134565571Y-123589143D01*
X134964714Y-123589143D01*
X134565571Y-123589143D02*
X134493000Y-123625429D01*
X134456714Y-123698000D01*
X134456714Y-123806857D01*
X134493000Y-123879429D01*
X134565571Y-123915714D01*
X134964714Y-123915714D01*
X134964714Y-124278572D02*
X134456714Y-124278572D01*
X134529286Y-124278572D02*
X134493000Y-124314857D01*
X134456714Y-124387429D01*
X134456714Y-124496286D01*
X134493000Y-124568857D01*
X134565571Y-124605143D01*
X134964714Y-124605143D01*
X134565571Y-124605143D02*
X134493000Y-124641429D01*
X134456714Y-124714000D01*
X134456714Y-124822857D01*
X134493000Y-124895429D01*
X134565571Y-124931714D01*
X134964714Y-124931714D01*
X134275286Y-129032001D02*
X134239000Y-129068287D01*
X134202714Y-129140858D01*
X134202714Y-129322287D01*
X134239000Y-129394858D01*
X134275286Y-129431144D01*
X134347857Y-129467429D01*
X134420429Y-129467429D01*
X134529286Y-129431144D01*
X134964714Y-128995715D01*
X134964714Y-129467429D01*
X134892143Y-129794001D02*
X134928429Y-129830286D01*
X134964714Y-129794001D01*
X134928429Y-129757715D01*
X134892143Y-129794001D01*
X134964714Y-129794001D01*
X134202714Y-130519715D02*
X134202714Y-130156858D01*
X134565571Y-130120572D01*
X134529286Y-130156858D01*
X134493000Y-130229429D01*
X134493000Y-130410858D01*
X134529286Y-130483429D01*
X134565571Y-130519715D01*
X134638143Y-130556000D01*
X134819571Y-130556000D01*
X134892143Y-130519715D01*
X134928429Y-130483429D01*
X134964714Y-130410858D01*
X134964714Y-130229429D01*
X134928429Y-130156858D01*
X134892143Y-130120572D01*
X134964714Y-130882572D02*
X134456714Y-130882572D01*
X134529286Y-130882572D02*
X134493000Y-130918857D01*
X134456714Y-130991429D01*
X134456714Y-131100286D01*
X134493000Y-131172857D01*
X134565571Y-131209143D01*
X134964714Y-131209143D01*
X134565571Y-131209143D02*
X134493000Y-131245429D01*
X134456714Y-131318000D01*
X134456714Y-131426857D01*
X134493000Y-131499429D01*
X134565571Y-131535714D01*
X134964714Y-131535714D01*
X134964714Y-131898572D02*
X134456714Y-131898572D01*
X134529286Y-131898572D02*
X134493000Y-131934857D01*
X134456714Y-132007429D01*
X134456714Y-132116286D01*
X134493000Y-132188857D01*
X134565571Y-132225143D01*
X134964714Y-132225143D01*
X134565571Y-132225143D02*
X134493000Y-132261429D01*
X134456714Y-132334000D01*
X134456714Y-132442857D01*
X134493000Y-132515429D01*
X134565571Y-132551714D01*
X134964714Y-132551714D01*
X135726714Y-120432286D02*
X135726714Y-120867715D01*
X136488714Y-120650001D02*
X135726714Y-120650001D01*
X136488714Y-123425857D02*
X136125857Y-123171857D01*
X136488714Y-122990429D02*
X135726714Y-122990429D01*
X135726714Y-123280714D01*
X135763000Y-123353286D01*
X135799286Y-123389571D01*
X135871857Y-123425857D01*
X135980714Y-123425857D01*
X136053286Y-123389571D01*
X136089571Y-123353286D01*
X136125857Y-123280714D01*
X136125857Y-122990429D01*
X136452429Y-125512286D02*
X136488714Y-125621143D01*
X136488714Y-125802572D01*
X136452429Y-125875143D01*
X136416143Y-125911429D01*
X136343571Y-125947714D01*
X136271000Y-125947714D01*
X136198429Y-125911429D01*
X136162143Y-125875143D01*
X136125857Y-125802572D01*
X136089571Y-125657429D01*
X136053286Y-125584857D01*
X136017000Y-125548572D01*
X135944429Y-125512286D01*
X135871857Y-125512286D01*
X135799286Y-125548572D01*
X135763000Y-125584857D01*
X135726714Y-125657429D01*
X135726714Y-125838857D01*
X135763000Y-125947714D01*
X135726714Y-128052286D02*
X135726714Y-128487715D01*
X136488714Y-128270001D02*
X135726714Y-128270001D01*
X136488714Y-131045857D02*
X136125857Y-130791857D01*
X136488714Y-130610429D02*
X135726714Y-130610429D01*
X135726714Y-130900714D01*
X135763000Y-130973286D01*
X135799286Y-131009571D01*
X135871857Y-131045857D01*
X135980714Y-131045857D01*
X136053286Y-131009571D01*
X136089571Y-130973286D01*
X136125857Y-130900714D01*
X136125857Y-130610429D01*
X136452429Y-133132286D02*
X136488714Y-133241143D01*
X136488714Y-133422572D01*
X136452429Y-133495143D01*
X136416143Y-133531429D01*
X136343571Y-133567714D01*
X136271000Y-133567714D01*
X136198429Y-133531429D01*
X136162143Y-133495143D01*
X136125857Y-133422572D01*
X136089571Y-133277429D01*
X136053286Y-133204857D01*
X136017000Y-133168572D01*
X135944429Y-133132286D01*
X135871857Y-133132286D01*
X135799286Y-133168572D01*
X135763000Y-133204857D01*
X135726714Y-133277429D01*
X135726714Y-133458857D01*
X135763000Y-133567714D01*
X103450572Y-121539000D02*
X103523143Y-121502714D01*
X103632000Y-121502714D01*
X103740857Y-121539000D01*
X103813429Y-121611571D01*
X103849714Y-121684143D01*
X103886000Y-121829286D01*
X103886000Y-121938143D01*
X103849714Y-122083286D01*
X103813429Y-122155857D01*
X103740857Y-122228429D01*
X103632000Y-122264714D01*
X103559429Y-122264714D01*
X103450572Y-122228429D01*
X103414286Y-122192143D01*
X103414286Y-121938143D01*
X103559429Y-121938143D01*
X103087714Y-122264714D02*
X103087714Y-121502714D01*
X102652286Y-122264714D01*
X102652286Y-121502714D01*
X102289428Y-122264714D02*
X102289428Y-121502714D01*
X102108000Y-121502714D01*
X101999143Y-121539000D01*
X101926571Y-121611571D01*
X101890286Y-121684143D01*
X101854000Y-121829286D01*
X101854000Y-121938143D01*
X101890286Y-122083286D01*
X101926571Y-122155857D01*
X101999143Y-122228429D01*
X102108000Y-122264714D01*
X102289428Y-122264714D01*
X103450571Y-129122714D02*
X103015142Y-129122714D01*
X103232856Y-129884714D02*
X103232856Y-129122714D01*
X102833714Y-129122714D02*
X102325714Y-129884714D01*
X102325714Y-129122714D02*
X102833714Y-129884714D01*
X102997000Y-127344714D02*
X103251000Y-126981857D01*
X103432428Y-127344714D02*
X103432428Y-126582714D01*
X103142143Y-126582714D01*
X103069571Y-126619000D01*
X103033286Y-126655286D01*
X102997000Y-126727857D01*
X102997000Y-126836714D01*
X103033286Y-126909286D01*
X103069571Y-126945571D01*
X103142143Y-126981857D01*
X103432428Y-126981857D01*
X102743000Y-126582714D02*
X102235000Y-127344714D01*
X102235000Y-126582714D02*
X102743000Y-127344714D01*
X103650142Y-124804714D02*
X103650142Y-124042714D01*
X103359857Y-124042714D01*
X103287285Y-124079000D01*
X103251000Y-124115286D01*
X103214714Y-124187857D01*
X103214714Y-124296714D01*
X103251000Y-124369286D01*
X103287285Y-124405571D01*
X103359857Y-124441857D01*
X103650142Y-124441857D01*
X102997000Y-124042714D02*
X102561571Y-124042714D01*
X102779285Y-124804714D02*
X102779285Y-124042714D01*
X102416429Y-124042714D02*
X101981000Y-124042714D01*
X102198714Y-124804714D02*
X102198714Y-124042714D01*
X116676714Y-107423857D02*
X116676714Y-107061000D01*
X115914714Y-107061000D01*
X116640429Y-107968142D02*
X116676714Y-107895571D01*
X116676714Y-107750428D01*
X116640429Y-107677857D01*
X116567857Y-107641571D01*
X116277571Y-107641571D01*
X116205000Y-107677857D01*
X116168714Y-107750428D01*
X116168714Y-107895571D01*
X116205000Y-107968142D01*
X116277571Y-108004428D01*
X116350143Y-108004428D01*
X116422714Y-107641571D01*
X116168714Y-108222142D02*
X116168714Y-108512428D01*
X116676714Y-108331000D02*
X116023571Y-108331000D01*
X115951000Y-108367285D01*
X115914714Y-108439857D01*
X115914714Y-108512428D01*
X116168714Y-108657571D02*
X116168714Y-108947857D01*
X115914714Y-108766429D02*
X116567857Y-108766429D01*
X116640429Y-108802714D01*
X116676714Y-108875286D01*
X116676714Y-108947857D01*
X116676714Y-112431285D02*
X116313857Y-112177285D01*
X116676714Y-111995857D02*
X115914714Y-111995857D01*
X115914714Y-112286142D01*
X115951000Y-112358714D01*
X115987286Y-112394999D01*
X116059857Y-112431285D01*
X116168714Y-112431285D01*
X116241286Y-112394999D01*
X116277571Y-112358714D01*
X116313857Y-112286142D01*
X116313857Y-111995857D01*
X116676714Y-112757857D02*
X116168714Y-112757857D01*
X115914714Y-112757857D02*
X115951000Y-112721571D01*
X115987286Y-112757857D01*
X115951000Y-112794142D01*
X115914714Y-112757857D01*
X115987286Y-112757857D01*
X116168714Y-113447285D02*
X116785571Y-113447285D01*
X116858143Y-113410999D01*
X116894429Y-113374714D01*
X116930714Y-113302142D01*
X116930714Y-113193285D01*
X116894429Y-113120714D01*
X116640429Y-113447285D02*
X116676714Y-113374714D01*
X116676714Y-113229571D01*
X116640429Y-113156999D01*
X116604143Y-113120714D01*
X116531571Y-113084428D01*
X116313857Y-113084428D01*
X116241286Y-113120714D01*
X116205000Y-113156999D01*
X116168714Y-113229571D01*
X116168714Y-113374714D01*
X116205000Y-113447285D01*
X116676714Y-113810143D02*
X115914714Y-113810143D01*
X116676714Y-114136714D02*
X116277571Y-114136714D01*
X116205000Y-114100428D01*
X116168714Y-114027857D01*
X116168714Y-113919000D01*
X116205000Y-113846428D01*
X116241286Y-113810143D01*
X116168714Y-114390714D02*
X116168714Y-114681000D01*
X115914714Y-114499572D02*
X116567857Y-114499572D01*
X116640429Y-114535857D01*
X116676714Y-114608429D01*
X116676714Y-114681000D01*
M02*
