G04 #@! TF.FileFunction,Soldermask,Top*
%FSLAX46Y46*%
G04 Gerber Fmt 4.6, Leading zero omitted, Abs format (unit mm)*
G04 Created by KiCad (PCBNEW 4.0.6) date Sunday, July 16, 2017 'PMt' 05:41:14 PM*
%MOMM*%
%LPD*%
G01*
G04 APERTURE LIST*
%ADD10C,0.100000*%
%ADD11R,2.100000X2.100000*%
%ADD12O,2.100000X2.100000*%
%ADD13C,2.200000*%
%ADD14C,1.600000*%
%ADD15O,2.000000X2.000000*%
%ADD16C,1.924000*%
%ADD17C,2.398980*%
G04 APERTURE END LIST*
D10*
D11*
X138430000Y-120650000D03*
D12*
X138430000Y-123190000D03*
X138430000Y-125730000D03*
X138430000Y-128270000D03*
X138430000Y-130810000D03*
X138430000Y-133350000D03*
D11*
X114300000Y-113157000D03*
D12*
X114300000Y-110617000D03*
X114300000Y-108077000D03*
D13*
X105410000Y-140970000D03*
X110410000Y-145970000D03*
X110410000Y-135970000D03*
D14*
X102910000Y-135970000D03*
X110410000Y-140970000D03*
X105410000Y-135970000D03*
X105410000Y-145970000D03*
X102910000Y-145970000D03*
D13*
X105410000Y-113030000D03*
X110410000Y-118030000D03*
X110410000Y-108030000D03*
D14*
X102910000Y-108030000D03*
X110410000Y-113030000D03*
X105410000Y-108030000D03*
X105410000Y-118030000D03*
X102910000Y-118030000D03*
D11*
X107950000Y-129540000D03*
D12*
X105410000Y-129540000D03*
X107950000Y-127000000D03*
X105410000Y-127000000D03*
X107950000Y-124460000D03*
X105410000Y-124460000D03*
X107950000Y-121920000D03*
X105410000Y-121920000D03*
D15*
X121920000Y-122555000D03*
X121920000Y-125095000D03*
X129540000Y-125095000D03*
X129540000Y-122555000D03*
D11*
X127000000Y-129540000D03*
D12*
X124460000Y-129540000D03*
D11*
X127000000Y-132588000D03*
D12*
X124460000Y-132588000D03*
D16*
X119380000Y-139700000D03*
X119380000Y-147320000D03*
X132080000Y-147320000D03*
X132080000Y-139700000D03*
X119380000Y-106680000D03*
X119380000Y-114300000D03*
X132080000Y-114300000D03*
X132080000Y-106680000D03*
D17*
X119380000Y-122555000D03*
X111760000Y-122555000D03*
M02*
